<svg xmlns="http://www.w3.org/2000/svg" width="109" height="30" viewBox="0 0 109 30" fill="none" xmlns:c2pa="http://c2pa.org/manifest"><metadata><c2pa:manifest>AAAWgmp1bWIAAAAeanVtZGMycGEAEQAQgAAAqgA4m3EDYzJwYQAAABZcanVtYgAAAEdqdW1kYzJtYQARABCAAACqADibcQN1cm46YzJwYTowZmY2YjFiYS0yNjNmLTQwNmMtODFiYy03MjkyOTM1OTBkOGUAAAADl2p1bWIAAAApanVtZGMyYXMAEQAQgAAAqgA4m3EDYzJwYS5hc3NlcnRpb25zAAAAALxqdW1iAAAARGp1bWRjYm9yABEAEIAAAKoAOJtxE2MycGEuaW5ncmVkaWVudC52MwAAAAAYYzJzaDjCuCUktVXt0xJILrpNsCMAAABwY2JvcqNpZGM6Zm9ybWF0bWltYWdlL3N2Zyt4bWxqaW5zdGFuY2VJRHgseG1wOmlpZDo1ZDAyZjM4Mi01MGRhLTRmOTAtYTI5My05NjVlM2JhNzA3MjNscmVsYXRpb25zaGlwaHBhcmVudE9mAAAB4mp1bWIAAABBanVtZGNib3IAEQAQgAAAqgA4m3ETYzJwYS5hY3Rpb25zLnYyAAAAABhjMnNodlrM3vlM3MWI1+8dR4sOdAAAAZljYm9yomdhY3Rpb25zgqJmYWN0aW9ua2MycGEub3BlbmVkanBhcmFtZXRlcnOha2luZ3JlZGllbnRzgaJjdXJseC1zZWxmI2p1bWJmPWMycGEuYXNzZXJ0aW9ucy9jMnBhLmluZ3JlZGllbnQudjNkaGFzaFggd8+Kjjkv7uDpietpSYsN2D9DPFg6C9ALuhUHU7Zbiz2kZmFjdGlvbngdY29tLmFudGhyb3BpYy5jbGF1ZGUucHJvdmlkZWRqcGFyYW1ldGVyc6F4H2NvbS5hbnRocm9waWMub3JpZ2luLWNvbmZpZGVuY2VndW5rbm93bmtkZXNjcmlwdGlvbnhmQ2xhdWRlIHByb3ZpZGVkIHRoaXMgZmlsZSBhdCB0aGUgcmVxdWVzdCBvZiBhIHVzZXIgYW5kIG1heSBoYXZlIGNyZWF0ZWQgb3IgbW9kaWZpZWQgdGhlIGZpbGUgY29udGVudHMubXNvZnR3YXJlQWdlbnShZG5hbWVmQ2xhdWRlcmFsbEFjdGlvbnNJbmNsdWRlZPUAAADIanVtYgAAAEBqdW1kY2JvcgARABCAAACqADibcRNjMnBhLmhhc2guZGF0YQAAAAAYYzJzaKzjMF7KhzNJREjIOEn6yAAAAACAY2JvcqVjYWxnZnNoYTI1NmNwYWRNAAAAAAAAAAAAAAAAAGRoYXNoWCAvRIJ7Urtupsd803WWynpDXUuMzJa0kxKdUJTpmZvJfGRuYW1lbmp1bWJmIG1hbmlmZXN0amV4Y2x1c2lvbnOBomVzdGFydBigZmxlbmd0aBkeBAAAAj5qdW1iAAAAJ2p1bWRjMmNsABEAEIAAAKoAOJtxA2MycGEuY2xhaW0udjIAAAACD2Nib3KlY2FsZ2ZzaGEyNTZpc2lnbmF0dXJleE1zZWxmI2p1bWJmPS9jMnBhL3VybjpjMnBhOjBmZjZiMWJhLTI2M2YtNDA2Yy04MWJjLTcyOTI5MzU5MGQ4ZS9jMnBhLnNpZ25hdHVyZWppbnN0YW5jZUlEeCx4bXA6aWlkOmE5MTQ1MTI1LWNhMDEtNDdjMi1hYzE4LWI5NjA2MmQ1MGZmOHJjcmVhdGVkX2Fzc2VydGlvbnODomN1cmx4LXNlbGYjanVtYmY9YzJwYS5hc3NlcnRpb25zL2MycGEuaW5ncmVkaWVudC52M2RoYXNoWCB3z4qOOS/u4OmJ62lJiw3YP0M8WDoL0Au6FQdTtluLPaJjdXJseCpzZWxmI2p1bWJmPWMycGEuYXNzZXJ0aW9ucy9jMnBhLmFjdGlvbnMudjJkaGFzaFggjMMtUH8SIoA3ucLlQoEtBbqk8FTch2HRbPyyegJmke6iY3VybHgpc2VsZiNqdW1iZj1jMnBhLmFzc2VydGlvbnMvYzJwYS5oYXNoLmRhdGFkaGFzaFggr/ul9FI6/zHzXIRZmZDQQYj2g8pL5PXQymLQ7+DNdpJ0Y2xhaW1fZ2VuZXJhdG9yX2luZm+jZG5hbWVvQW50aHJvcGljIEZpbGVzZ3ZlcnNpb25lMS4wLjBrc3BlY1ZlcnNpb25lMi40LjAAABA4anVtYgAAAChqdW1kYzJjcwARABCAAACqADibcQNjMnBhLnNpZ25hdHVyZQAAABAIY2JvctKEWQISogEmGCFZAgowggIGMIIBjaADAgECAhRA5aAK7sI50L64g/oGQgU9Z1UTADAKBggqhkjOPQQDAzBJMRcwFQYDVQQKEw5BbnRocm9waWMsIFBCQzEuMCwGA1UEAxMlQW50aHJvcGljIENvbnRlbnQgQ3JlZGVudGlhbHMgUm9vdCBDQTAeFw0yNjA4MDcxODQzNTZaFw0yODA4MDYxOTQzNTZaMEQxFzAVBgNVBAoTDkFudGhyb3BpYywgUEJDMSkwJwYDVQQDEyBBbnRocm9waWMgQ2xhdWRlIENvbnRlbnQgU2lnbmluZzBZMBMGByqGSM49AgEGCCqGSM49AwEHA0IABJh6CmvLUBgFFNU0vUKlOVtE6djd17L5SuwX0LemFisBM3dkd/3cyjxFA3Qo5S46fX0/ihY0VZ7mfb9KF703t5OjWDBWMA4GA1UdDwEB/wQEAwIHgDAVBgNVHSUEDjAMBgorBgEEAYPoXgIBMAwGA1UdEwEB/wQCMAAwHwYDVR0jBBgwFoAUzlHiBIFOZFsj+OPEz5o+nMHXXMIwCgYIKoZIzj0EAwMDZwAwZAIwMXMdFJ4BetLLVY7ORuE9noqbbAZOZn/aArXyTwFAZfKrPzxF2vPoJNf1+UCdg1XGAjBwX1zd9WGqYkqmL5SFqw1QySjr1zJfpJM9+1rdDwSPLMOPOjKuiXjoU/pUUeG9RwmhY3BhZFkNngAAAAAAAAAAAAAAAAAAAAAAAAAAAAAAAAAAAAAAAAAAAAAAAAAAAAAAAAAAAAAAAAAAAAAAAAAAAAAAAAAAAAAAAAAAAAAAAAAAAAAAAAAAAAAAAAAAAAAAAAAAAAAAAAAAAAAAAAAAAAAAAAAAAAAAAAAAAAAAAAAAAAAAAAAAAAAAAAAAAAAAAAAAAAAAAAAAAAAAAAAAAAAAAAAAAAAAAAAAAAAAAAAAAAAAAAAAAAAAAAAAAAAAAAAAAAAAAAAAAAAAAAAAAAAAAAAAAAAAAAAAAAAAAAAAAAAAAAAAAAAAAAAAAAAAAAAAAAAAAAAAAAAAAAAAAAAAAAAAAAAAAAAAAAAAAAAAAAAAAAAAAAAAAAAAAAAAAAAAAAAAAAAAAAAAAAAAAAAAAAAAAAAAAAAAAAAAAAAAAAAAAAAAAAAAAAAAAAAAAAAAAAAAAAAAAAAAAAAAAAAAAAAAAAAAAAAAAAAAAAAAAAAAAAAAAAAAAAAAAAAAAAAAAAAAAAAAAAAAAAAAAAAAAAAAAAAAAAAAAAAAAAAAAAAAAAAAAAAAAAAAAAAAAAAAAAAAAAAAAAAAAAAAAAAAAAAAAAAAAAAAAAAAAAAAAAAAAAAAAAAAAAAAAAAAAAAAAAAAAAAAAAAAAAAAAAAAAAAAAAAAAAAAAAAAAAAAAAAAAAAAAAAAAAAAAAAAAAAAAAAAAAAAAAAAAAAAAAAAAAAAAAAAAAAAAAAAAAAAAAAAAAAAAAAAAAAAAAAAAAAAAAAAAAAAAAAAAAAAAAAAAAAAAAAAAAAAAAAAAAAAAAAAAAAAAAAAAAAAAAAAAAAAAAAAAAAAAAAAAAAAAAAAAAAAAAAAAAAAAAAAAAAAAAAAAAAAAAAAAAAAAAAAAAAAAAAAAAAAAAAAAAAAAAAAAAAAAAAAAAAAAAAAAAAAAAAAAAAAAAAAAAAAAAAAAAAAAAAAAAAAAAAAAAAAAAAAAAAAAAAAAAAAAAAAAAAAAAAAAAAAAAAAAAAAAAAAAAAAAAAAAAAAAAAAAAAAAAAAAAAAAAAAAAAAAAAAAAAAAAAAAAAAAAAAAAAAAAAAAAAAAAAAAAAAAAAAAAAAAAAAAAAAAAAAAAAAAAAAAAAAAAAAAAAAAAAAAAAAAAAAAAAAAAAAAAAAAAAAAAAAAAAAAAAAAAAAAAAAAAAAAAAAAAAAAAAAAAAAAAAAAAAAAAAAAAAAAAAAAAAAAAAAAAAAAAAAAAAAAAAAAAAAAAAAAAAAAAAAAAAAAAAAAAAAAAAAAAAAAAAAAAAAAAAAAAAAAAAAAAAAAAAAAAAAAAAAAAAAAAAAAAAAAAAAAAAAAAAAAAAAAAAAAAAAAAAAAAAAAAAAAAAAAAAAAAAAAAAAAAAAAAAAAAAAAAAAAAAAAAAAAAAAAAAAAAAAAAAAAAAAAAAAAAAAAAAAAAAAAAAAAAAAAAAAAAAAAAAAAAAAAAAAAAAAAAAAAAAAAAAAAAAAAAAAAAAAAAAAAAAAAAAAAAAAAAAAAAAAAAAAAAAAAAAAAAAAAAAAAAAAAAAAAAAAAAAAAAAAAAAAAAAAAAAAAAAAAAAAAAAAAAAAAAAAAAAAAAAAAAAAAAAAAAAAAAAAAAAAAAAAAAAAAAAAAAAAAAAAAAAAAAAAAAAAAAAAAAAAAAAAAAAAAAAAAAAAAAAAAAAAAAAAAAAAAAAAAAAAAAAAAAAAAAAAAAAAAAAAAAAAAAAAAAAAAAAAAAAAAAAAAAAAAAAAAAAAAAAAAAAAAAAAAAAAAAAAAAAAAAAAAAAAAAAAAAAAAAAAAAAAAAAAAAAAAAAAAAAAAAAAAAAAAAAAAAAAAAAAAAAAAAAAAAAAAAAAAAAAAAAAAAAAAAAAAAAAAAAAAAAAAAAAAAAAAAAAAAAAAAAAAAAAAAAAAAAAAAAAAAAAAAAAAAAAAAAAAAAAAAAAAAAAAAAAAAAAAAAAAAAAAAAAAAAAAAAAAAAAAAAAAAAAAAAAAAAAAAAAAAAAAAAAAAAAAAAAAAAAAAAAAAAAAAAAAAAAAAAAAAAAAAAAAAAAAAAAAAAAAAAAAAAAAAAAAAAAAAAAAAAAAAAAAAAAAAAAAAAAAAAAAAAAAAAAAAAAAAAAAAAAAAAAAAAAAAAAAAAAAAAAAAAAAAAAAAAAAAAAAAAAAAAAAAAAAAAAAAAAAAAAAAAAAAAAAAAAAAAAAAAAAAAAAAAAAAAAAAAAAAAAAAAAAAAAAAAAAAAAAAAAAAAAAAAAAAAAAAAAAAAAAAAAAAAAAAAAAAAAAAAAAAAAAAAAAAAAAAAAAAAAAAAAAAAAAAAAAAAAAAAAAAAAAAAAAAAAAAAAAAAAAAAAAAAAAAAAAAAAAAAAAAAAAAAAAAAAAAAAAAAAAAAAAAAAAAAAAAAAAAAAAAAAAAAAAAAAAAAAAAAAAAAAAAAAAAAAAAAAAAAAAAAAAAAAAAAAAAAAAAAAAAAAAAAAAAAAAAAAAAAAAAAAAAAAAAAAAAAAAAAAAAAAAAAAAAAAAAAAAAAAAAAAAAAAAAAAAAAAAAAAAAAAAAAAAAAAAAAAAAAAAAAAAAAAAAAAAAAAAAAAAAAAAAAAAAAAAAAAAAAAAAAAAAAAAAAAAAAAAAAAAAAAAAAAAAAAAAAAAAAAAAAAAAAAAAAAAAAAAAAAAAAAAAAAAAAAAAAAAAAAAAAAAAAAAAAAAAAAAAAAAAAAAAAAAAAAAAAAAAAAAAAAAAAAAAAAAAAAAAAAAAAAAAAAAAAAAAAAAAAAAAAAAAAAAAAAAAAAAAAAAAAAAAAAAAAAAAAAAAAAAAAAAAAAAAAAAAAAAAAAAAAAAAAAAAAAAAAAAAAAAAAAAAAAAAAAAAAAAAAAAAAAAAAAAAAAAAAAAAAAAAAAAAAAAAAAAAAAAAAAAAAAAAAAAAAAAAAAAAAAAAAAAAAAAAAAAAAAAAAAAAAAAAAAAAAAAAAAAAAAAAAAAAAAAAAAAAAAAAAAAAAAAAAAAAAAAAAAAAAAAAAAAAAAAAAAAAAAAAAAAAAAAAAAAAAAAAAAAAAAAAAAAAAAAAAAAAAAAAAAAAAAAAAAAAAAAAAAAAAAAAAAAAAAAAAAAAAAAAAAAAAAAAAAAAAAAAAAAAAAAAAAAAAAAAAAAAAAAAAAAAAAAAAAAAAAAAAAAAAAAAAAAAAAAAAAAAAAAAAAAAAAAAAAAAAAAAAAAAAAAAAAAAAAAAAAAAAAAAAAAAAAAAAAAAAAAAAAAAAAAAAAAAAAAAAAAAAAAAAAAAAAAAAAAAAAAAAAAAAAAAAAAAAAAAAAAAAAAAAAAAAAAAAAAAAAAAAAAAAAAAAAAAAAAAAAAAAAAAAAAAAAAAAAAAAAAAAAAAAAAAAAAAAAAAAAAAAAAAAAAAAAAAAAAAAAAAAAAAAAAAAAAAAAAAAAAAAAAAAAAAAAAAAAAAAAAAAAAAAAAAAAAAAAAAAAAAAAAAAAAAAAAAAAAAAAAAAAAAAAAAAAAAAAAAAAAAAAAAAAAAAAAAAAAAAAAAAAAAAAAAAAAAAAAAAAAAAAAAAAAAAAAAAAAAAAAAAAAAAAAAAAAAAAAAAAAAAAAAAAAAAAAAAAAAAAAAAAAAAAAAAAAAAAAAAAAAAAAAAAAAAAAAAAAAAAAAAAAAAAAAAAAAAAAAAAAAAAAAAAAAAAAAAAAAAAAAAAAAAAAAAAAAAAAAAAAAAAAAAAAAAAAAAAAAAAAAAAAAAAAAAAAAAAAAAAAAAAAAAAAAAAAAAAAAAAAAAAAAAAAAAAAAAAAAAAAAAAAAAAAAAAAAAAAAAAAAAAAAAAAAAAAAAAAAAAAAAAAAAAAAAAAAAAAAAAAAAAAAAAAAAAAAAAAAAAAAAAAAAAAAAAAAAAAAAAAAAAAAAAAAAAAAAAAAAAAAAAAAAAAAAAAAAAAAAAAAAAAAAAAAAAAAAAAAAAAAAAAAAAAAAAAAAAAAAAAAAAAAAAAAAAAAAAAAAAAAAAAAAAAAAAAAAAAAAAAAAAAAAAAAAAAAAAAAAAAAAAAAAAAAAAAAAAAAAAAAAAAAAAAAAAAAAAAAAAAAAAAAAAAAAAAAAAAAAAAAAAAAAAAAAAAAAAAAAAAAAAAAAAAAAAAAAAAAAAAAAAAAAAAAAAAAAAAAAAAAAAAAAAAAAAAAAAAAAAAAAAAAAAAAAAAAAAAAAAAAAAAAAAAAAAAAAAAAAAAAAAAAAAAAAAAAAAAAAAAAAAAAAAAAAAAAAAAAAAAAAAAAAAAAAAAAAAAAAAAAAAAAAAAAAAAAAAAAAAAAAAAAAAAAAAAAAAAAAAAAAAAAAAAAAAAAAAAAAAAAAAAAAAAAAAAAAAAAAAAAAAAAAAAAAAAAAAAAAAAAAAAAAAAAAAAAAAAAAAAAAAAAAAAAAAAAAAAAAAAAAAAAAAAAAAAAAAAAAAAAAAAAAAAAAAAAAAAAAAAAAAAAAAAAAAAAAAAAAAAAAAAAAAAAAAAAAAAAAAAAAAAAAAAAAAAAAAAAAAAAAAAAAAAAAAAAAAAAAAAAAAAAAAAAAAAAAAAAAAAAAAAAAAAAAAAAAAAAAAAAAAAAAAAAAAAAAAAAAAAAAAAAAAAAAAAAAAAAAAAAAAAAAAAAAAAAAAAAAAAAAAAAAAAAAAAAAAAAAAAAAAAAAAAAAAAPZYQFEkoMijbjAF1+luztN33222o1M1mpcT7ePYC7aGOdFBgEZFx0WTv8jZcVF3VxCUt0sHL56Fy5ZS9ppH7i0+6us=</c2pa:manifest></metadata><g clip-path="url(#clip0_41_22)"><path d="M100.699 6.1438H105.228L104.266 10.6664H99.741L98.2404 17.717C97.9064 19.3011 98.2451 19.5238 100.089 19.5238C100.926 19.5238 101.615 19.4936 102.529 19.4612L101.62 23.7286C100.189 23.9211 98.3494 24.051 96.3433 24.051C91.8833 24.051 90.2714 22.954 91.0761 19.1712L92.8875 10.6664H89.2972L90.2574 6.1438H93.8477L95.0282 0.584461H101.884L100.699 6.1438ZM77.2277 23.666H84.0812L87.8036 6.1438H80.9501L77.2277 23.666ZM81.3769 4.13761H88.2304L89.1117 0H82.2582L81.3792 4.13761H81.3769ZM62.7971 6.1438L59.0723 23.666H65.7402L69.465 6.1438H62.7971ZM78.654 5.42713C78.218 5.38771 77.7634 5.36451 77.3529 5.36451C74.2938 5.36451 69.4233 8.37959 68.1384 13.7464L67.809 14.9548H67.925C68.8991 12.6262 71.3367 11.3784 74.6231 11.3784C75.5091 11.3784 76.5156 11.499 77.3251 11.6823L78.6564 5.42482L78.654 5.42713ZM53.1233 6.1438L49.3985 23.666H56.252L59.9745 6.1438H53.1233ZM61.2802 0H54.4267L53.5477 4.13761H60.4012L61.2802 0ZM48.9741 15.1937C47.8956 20.2683 43.271 24.3711 36.8396 24.3711C33.8013 24.3711 31.6884 23.3692 30.7978 22.0773H30.7329L29.0468 29.9977H22.1956L27.2679 6.14148H33.9266L33.4349 8.46772H33.4998C35.332 6.68883 37.9714 5.68922 40.7522 5.68922C46.9586 5.68922 50.2706 9.11248 48.9787 15.1913L48.9741 15.1937ZM38.0827 10.4739C34.8821 10.4739 32.8295 12.218 32.252 14.9339C31.6745 17.6498 32.9826 19.3939 36.1832 19.3939C39.3838 19.3939 41.3645 17.8423 41.9791 14.9339C42.5984 12.0209 41.2161 10.4739 38.0804 10.4739H38.0827ZM16.9679 12.8999L11.1882 12.2551C9.48357 12.0603 9.13336 11.5779 9.25164 11.0259C9.50676 9.82915 10.7661 9.37688 12.7375 9.37688C13.6119 9.37688 14.4956 9.47661 15.1125 9.7642C15.7364 10.024 16.1191 10.5087 16.0263 11.2509H23.7194C24.3896 6.27368 18.6842 5.43409 14.0294 5.43409C7.46811 5.43409 3.0777 6.92076 2.06881 11.6707C1.43564 14.6463 3.17047 16.068 7.07151 16.5528L13.0251 17.2973C14.6649 17.4898 15.2887 17.7495 15.0893 18.6865C14.8203 19.9459 13.1411 20.2381 11.6243 20.2381C10.1075 20.2381 9.24005 20.0479 8.70197 19.6931C8.15694 19.3661 8.0085 18.8489 8.04793 18.2041H0.0974102C-0.869733 23.506 5.50831 24.3734 10.3603 24.3734C17.6336 24.3734 21.9869 22.4368 22.8682 18.2992C23.5941 14.8736 21.5763 13.4194 16.9679 12.8999ZM107.592 7.47739L107.896 8.02474H107.529L107.3 7.5748H107.065V8.02474H106.72V6.64708H107.295C107.448 6.64708 107.578 6.68187 107.687 6.75145C107.796 6.82103 107.849 6.93699 107.849 7.09702C107.849 7.17588 107.828 7.2501 107.784 7.31967C107.74 7.38925 107.678 7.4426 107.594 7.47971L107.592 7.47739ZM107.48 7.11558C107.48 7.05528 107.462 7.00657 107.423 6.96714C107.383 6.92772 107.32 6.90916 107.232 6.90916H107.065V7.32431H107.225C107.304 7.32431 107.367 7.30576 107.413 7.26865C107.46 7.23154 107.483 7.18052 107.483 7.11558H107.48ZM108.589 7.35214C108.589 7.55624 108.554 7.74179 108.485 7.90877C108.415 8.07808 108.32 8.22188 108.197 8.3448C108.074 8.46772 107.933 8.56281 107.77 8.62775C107.608 8.69501 107.436 8.72748 107.251 8.72748C107.065 8.72748 106.894 8.69501 106.731 8.62775C106.569 8.56049 106.428 8.4654 106.305 8.3448C106.182 8.22188 106.087 8.07808 106.017 7.90877C105.947 7.73947 105.913 7.55392 105.913 7.35214C105.913 7.15037 105.947 6.9625 106.017 6.79088C106.087 6.61925 106.182 6.47313 106.305 6.35021C106.428 6.22729 106.569 6.1322 106.731 6.06726C106.894 6 107.065 5.96753 107.251 5.96753C107.436 5.96753 107.608 6 107.77 6.06726C107.933 6.13452 108.074 6.22961 108.197 6.35021C108.32 6.47313 108.415 6.61925 108.485 6.79088C108.554 6.9625 108.589 7.14805 108.589 7.35214ZM108.264 7.35214C108.264 7.18979 108.239 7.04368 108.188 6.90916C108.137 6.77464 108.067 6.661 107.977 6.56359C107.886 6.46618 107.78 6.39196 107.654 6.33862C107.529 6.28527 107.397 6.25976 107.253 6.25976C107.109 6.25976 106.97 6.28527 106.847 6.33862C106.724 6.39196 106.618 6.46618 106.53 6.56359C106.439 6.661 106.37 6.77696 106.319 6.90916C106.267 7.04368 106.242 7.18979 106.242 7.35214C106.242 7.51449 106.267 7.66061 106.319 7.79281C106.37 7.92501 106.439 8.03633 106.53 8.13143C106.62 8.22652 106.727 8.30073 106.847 8.35408C106.97 8.40742 107.105 8.43293 107.253 8.43293C107.402 8.43293 107.529 8.40742 107.654 8.35408C107.78 8.30073 107.886 8.22652 107.977 8.13143C108.067 8.03633 108.137 7.92269 108.188 7.79281C108.239 7.66061 108.264 7.51449 108.264 7.35214Z" fill="black"></path></g><defs><clipPath id="clip0_41_22"><rect width="108.589" height="30" fill="white"></rect></clipPath></defs></svg>